<?xml version="1.0" encoding="UTF-8"?>
<svg width="256px" height="423px" viewBox="0 0 256 423" version="1.1" xmlns="http://www.w3.org/2000/svg" xmlns:xlink="http://www.w3.org/1999/xlink">
    <!-- Generator: Sketch 50.2 (55047) - http://www.bohemiancoding.com/sketch -->
    <title>Group 2</title>
    <desc>Created with Sketch.</desc>
    <defs></defs>
    <g id="Page-1" stroke="none" stroke-width="1" fill="none" fill-rule="evenodd">
        <g id="266602-P53ZNR-823" transform="translate(-1068.000000, 0.000000)">
            <g id="Group-2" transform="translate(1068.000000, 0.000000)">
                <polyline id="Fill-2" fill="#A79F7B" points="190.23 0 65.89 0 0.25 387.43 255.88 387.43 190.23 0"></polyline>
                <path d="M0.25,387.43 C0.25,406.935 57.47,422.747 128.06,422.747 C198.65,422.747 255.88,406.935 255.88,387.43 C255.88,367.924 198.65,352.111 128.06,352.111 C57.47,352.111 0.25,367.924 0.25,387.43" id="Fill-3" fill="#F6ECBA"></path>
                <g id="Group" transform="translate(75.000000, 197.000000)">
                    <path d="M77.0329849,12.0174987 C77.0329849,12.0174987 83.5605254,34.9637554 62.6970212,47.9495228 C60.9392025,49.0437192 58.9876399,50.0667431 56.8216915,51 L56,45.5328653 C56,45.5328653 60.5451962,44.4338599 64.9701625,40.657552 C69.8575792,36.4946044 74.6008649,29.0769596 72.9513256,16.2894492 C72.9513256,16.2894492 72.674652,13.5641211 68.9210899,14.1962415 L60.6433356,16.1051061 L59.2842311,12.0808486 L72.6445946,9.00001098 C72.6445946,9.00001098 76.1363308,8.97019549 77.0329849,12.0174987" id="Fill-8" fill="#F4BE45"></path>
                    <path d="M56.8244247,51 L56,45.7138872 C56,45.7138872 60.5603149,44.6512709 65,41 C64.4887767,43.4556727 63.7461042,45.83323 62.7192975,48.050527 C60.9556318,49.1084935 58.9975777,50.0976441 56.8244247,51" id="Fill-9" fill="#D3A53D"></path>
                    <polyline id="Fill-10" fill="#4A5F5D" points="61.2842185 17 60 13 61.2842185 17 65 16.0986584 61.2842185 17"></polyline>
                    <path d="M61.2842185,17 L60,13.0221576 L64.2372707,12 C64.4925404,13.2345749 64.753285,14.6150185 65,16.1036513 L61.2842185,17" id="Fill-11" fill="#D3A53D"></path>
                    <path d="M39,55.9342947 C35.9380162,56.0905426 33.0996241,55.9628492 30.4715232,55.6073612 C6.73349202,52.4050817 0.16313191,30.6157208 0.16313191,30.6157208 C-0.726885193,27.5661599 2.31500411,26.082928 2.31500411,26.082928 L15.5767945,23 L16.6002118,27.1028705 L8.38357704,29.0131372 C4.785117,30.0834513 6.03665525,32.5837383 6.03665525,32.5837383 C11.091301,43.3802424 18.2983582,48.0253284 24.4564757,49.9269325 C31.2203037,52.0197558 36.721306,50.8031398 36.721306,50.8031398 L39,55.9342947" id="Fill-12" fill="#F4BE45"></path>
                    <path d="M11.6624667,28 C11.0306305,26.6463971 10.4752077,25.3773183 10,24.2325935 L15.9176669,23 L17,26.8881119 L11.6624667,28" id="Fill-13" fill="#D3A53D"></path>
                    <path d="M35.5493598,55 C33.52227,55 31.6041821,54.8637012 29.7902516,54.6120239 C27.7022591,52.9758043 25.772406,51.068572 24,49 C27.0105294,49.9559934 29.7618765,50.2130593 31.849523,50.2130593 C34.2766326,50.2130593 35.806466,49.8656559 35.806466,49.8656559 L38,54.9350203 C37.1663948,54.9787627 36.3493994,55 35.5493598,55" id="Fill-14" fill="#D3A53D"></path>
                    <path d="M53.8928785,56.9388084 L53.2547694,57.7385893 C52.4550635,58.741309 51.2562245,59.446238 49.8936293,59.7147224 L49.0550538,59.8801617 C47.8745699,60.1130372 46.6393806,60.0046351 45.5348363,59.5713417 L44.3640698,59.1118931 C20.7338766,54.6778046 10.1116806,16.775124 10.1116806,16.775124 C9.37963662,14.3150258 12.4859649,12.9207663 12.4859649,12.9207663 L55.9813994,3.00074198 C55.9813994,3.00074198 59.471025,2.89070121 60.203069,5.35079944 C60.203069,5.35079944 72.0492973,42.9741554 53.8928785,56.9388084" id="Fill-15" fill="#FAD059"></path>
                    <path d="M55.2543492,40 C54.6380265,37.9585994 53.8580299,37.6266241 51,38.1901013 C53.8580299,37.6266241 54.3611904,37.0414006 53.7456508,35 C54.3611904,37.0414006 55.1415786,37.3733759 58,36.8098987 C55.1415786,37.3733759 54.6380265,37.9585994 55.2543492,40" id="Fill-16" fill="#FCE9A5"></path>
                    <path d="M51.8232022,43 C51.5590231,41.7754039 51.2248304,41.5759113 50,41.9144078 C51.2248304,41.5759113 51.4405699,41.2249967 51.1767978,40 C51.4405699,41.2249967 51.7751696,41.4240887 53,41.0859928 C51.7751696,41.4240887 51.5590231,41.7754039 51.8232022,43" id="Fill-17" fill="#FCE9A5"></path>
                    <path d="M60.6816526,8.80532427 L11.9153946,19.912694 C10.2653061,20.288525 8.56364116,19.4156576 8.1339806,17.9729054 L7.09983679,14.5013238 C6.67003297,13.0585402 7.6683598,11.5706256 9.31830503,11.1947946 L58.084563,0.0872995997 C59.7346515,-0.288531324 61.4363165,0.584429955 61.8661203,2.02721355 L62.9001566,5.49879512 C63.3299605,6.94157872 62.3317411,8.42949335 60.6816526,8.80532427" id="Fill-18" fill="#EFB73D"></path>
                    <polyline id="Fill-19" fill="#FAD059" points="65 101.490132 58.5254839 103 45 56.510186 51.4745161 55 65 101.490132"></polyline>
                    <polyline id="Fill-20" fill="#714931" points="87 108.4687 44.842564 118 39 98.5312997 81.157436 89 87 108.4687"></polyline>
                    <polyline id="Fill-21" fill="#623F2D" points="89 107.365233 40.9430127 119 40 115.634767 88.0569873 104 89 107.365233"></polyline>
                    <polyline id="Fill-22" fill="#FCE9A5" points="77 104.161988 50.7910882 110 48 100.838012 74.2092712 95 77 104.161988"></polyline>
                    <polyline id="Fill-23" fill="#EFB73D" points="71 91.2365418 49.6792603 96 49 93.7634582 70.3207397 89 71 91.2365418"></polyline>
                    <path d="M52.5382934,80.7594989 C52.5382934,80.7594989 56.6190988,92.4013077 50,94 L59,91.8261625 L55.6778523,80 L52.5382934,80.7594989" id="Fill-24" fill="#FAD059"></path>
                    <path d="M58.3162077,79 C58.3162077,79 61.0238135,91.4029145 68,89.7515068 L58.5013712,92 L55,79.7838814 L58.3162077,79" id="Fill-25" fill="#FAD059"></path>
                    <path d="M56.8689956,4 C54.5261059,6.04170638 54.5504082,6.93857019 57,8.89096888 C54.5504082,6.93857019 53.4738941,6.95895633 51.1310044,9 C53.4738941,6.95895633 53.4499715,6.06174538 51,4.10903112 C53.4499715,6.06174538 54.5261059,6.04170638 56.8689956,4" id="Fill-26" fill="#FCE9A5"></path>
                    <path d="M48.0135182,5 C48.4110919,6.22489477 48.7750433,6.41143207 50,6.01723021 C48.7750433,6.41143207 48.5896014,6.77517461 48.9864818,8 C48.5896014,6.77517461 48.2249567,6.58860262 47,6.9827004 C48.2249567,6.58860262 48.4110919,6.22489477 48.0135182,5" id="Fill-27" fill="#FCE9A5"></path>
                    <path d="M26.8826848,16 C26.8826848,16 27.5801667,49.4365847 52,59 C52,59 30.9900781,55.3681039 21.9275214,31.8763222 C21.9275214,31.8763222 18.9474702,23.6862617 19.0007048,17.8195748 L26.8826848,16" id="Fill-28" fill="#FCE9A5"></path>
                </g>
            </g>
        </g>
    </g>
</svg>