<?xml version="1.0" encoding="UTF-8"?>
<svg width="138px" height="40px" viewBox="0 0 138 40" version="1.1" xmlns="http://www.w3.org/2000/svg" xmlns:xlink="http://www.w3.org/1999/xlink">
    <!-- Generator: Sketch 48.2 (47327) - http://www.bohemiancoding.com/sketch -->
    <title>pga-logo</title>
    <desc>Created with Sketch.</desc>
    <defs></defs>
    <g id="Page-1" stroke="none" stroke-width="1" fill="none" fill-rule="evenodd">
        <g id="pga-logo" fill-rule="nonzero">
            <ellipse id="Oval" fill="#FFFFFF" cx="20.0278278" cy="20.2242623" rx="18.9931579" ry="18.8622951"></ellipse>
            <path d="M130.000622,27.7344262 C128.666842,27.2439344 128.36311,27.0104918 127.979483,26.1704918 L118.664813,7.7704918 L114.805435,7.7704918 L104.390067,26.5245902 C104.013703,27.2321311 103.671675,27.3986885 102.800096,27.7055738 L100.433627,28.4216393 L100.433627,31.1645902 L111.98601,31.1645902 L111.98601,28.357377 L109.420794,27.695082 C108.870775,27.5606557 108.895866,27.1980328 109.024622,26.9534426 C109.024622,26.9534426 109.360048,26.3186885 109.865167,25.3639344 L119.538373,25.3639344 C120.051416,26.3259016 120.188096,26.5206557 120.354488,26.8688525 C120.599455,27.3809836 120.122067,27.6104918 119.517244,27.7803279 L117.202938,28.4177049 L117.202938,31.1645902 L132.039589,31.1645902 L132.039589,28.4681967 C132.040909,28.4668852 130.004584,27.735082 130.000622,27.7344262 Z M111.04378,23.1298361 C112.556498,20.2681967 114.682622,16.1868852 114.833167,15.8872131 C114.980411,16.2321311 116.923636,20.2183607 118.348536,23.1298361 L111.04378,23.1298361 Z" id="Shape" fill="#B4975A"></path>
            <path d="M100.062545,22.4308197 L102.359024,21.7613115 L102.359024,18.9022951 L87.4378565,18.9022951 L87.4378565,21.7613115 L89.7349952,22.4308197 C91.3659043,22.9278689 91.4279713,23.1114754 91.4279713,24.4072131 L91.4279713,28.3009836 C90.6052536,28.4596721 89.0482967,28.477377 88.0420191,28.3304918 C82.648134,27.5488525 81.1605072,23.6013115 81.1605072,19.4642623 C81.1605072,17.1396721 81.9475694,15.0268852 83.7362871,13.3114754 C85.0113014,12.0872131 86.9657512,10.9744262 89.9350622,11.0806557 C91.2298852,11.1278689 92.717512,11.7416393 93.2312153,12.0983607 C94.7082775,13.1193443 95.0555885,14.3239344 95.4458182,15.8039344 L99.2682201,15.8039344 L99.2517129,9.97901639 C99.2517129,9.97901639 95.3969569,7.35737705 88.7359809,7.35737705 C83.4444402,7.35737705 73.0402967,9.54491803 73.0402967,19.8190164 C73.0402967,26.1213115 78.3740957,31.0439344 87.6511292,31.5134426 C94.0413876,31.8340984 98.3735311,29.9613115 98.3735311,29.9613115 L98.3695694,24.4078689 C98.3695694,23.1114754 98.4316364,22.9278689 100.062545,22.4308197 Z" id="Shape" fill="#B4975A"></path>
            <path d="M63.1577799,7.95606557 C62.0438756,7.83672131 58.8229952,7.8052459 58.8229952,7.8052459 L45.70111,7.80918033 L45.70111,10.6590164 L47.9018469,11.3344262 C49.6885837,11.9068852 49.6885837,12.0754098 49.6885837,13.3803279 L49.6998086,25.7311475 C49.6998086,27.0393443 49.6998086,27.1160656 47.9097703,27.6806557 L45.7136555,28.3055738 L45.7136555,31.1737705 L60.7001914,31.1737705 L60.7001914,28.3055738 L58.5040766,27.6806557 C56.7127177,27.1180328 56.7127177,27.0393443 56.7127177,25.7311475 L56.7206411,22.7836066 C56.9504211,22.7836066 60.2683636,22.7836066 60.2683636,22.7836066 C63.5321627,22.7337705 66.1726507,22.5259016 68.5311962,21.2013115 C70.7788134,19.9377049 72.0095885,17.5986885 72.0095885,15.1527869 C72.0076077,11.2052459 68.8653014,8.53377049 63.1577799,7.95606557 Z M63.7137416,18.292459 C63.2957799,18.6714754 62.3568517,19.132459 61.5909187,19.3232787 C59.50111,19.8498361 56.8170431,19.6439344 56.7199809,19.6439344 L56.7199809,10.84 C58.4908708,10.84 61.5843158,10.575082 63.5717799,11.9947541 C64.5516459,12.6957377 65.1260957,13.8078689 65.1551483,15.2413115 C65.1782584,16.2531148 64.8038756,17.3652459 63.7137416,18.292459 Z" id="Shape" fill="#B4975A"></path>
            <path d="M20.2661914,0.201311475 C9.27439234,0.201311475 0.330143541,9.08196721 0.330143541,19.9986885 C0.330143541,30.9154098 9.27439234,39.7986885 20.2661914,39.7986885 C31.2599713,39.7986885 40.2022392,30.9154098 40.2022392,19.9986885 C40.2022392,9.08196721 31.2606316,0.201311475 20.2661914,0.201311475 Z" id="Shape" fill="#B4975A"></path>
            <path d="M20.2576077,2.01311475 C10.2542584,2.01311475 2.11555981,10.0957377 2.11555981,20.0314754 C2.11555981,29.9659016 10.2535981,38.0485246 20.2576077,38.0485246 C30.2622775,38.0485246 38.3989952,29.9672131 38.3989952,20.0314754 C38.3989952,10.0957377 30.2622775,2.01311475 20.2576077,2.01311475 Z" id="Shape" fill="#00234B"></path>
            <path d="M20.2661914,33.2439344 C27.5722679,33.2439344 33.5181531,27.3383607 33.5181531,20.0819672 C33.5181531,12.8242623 27.5722679,6.92131148 20.2661914,6.92131148 C12.9601148,6.92131148 7.01356938,12.8242623 7.01356938,20.0819672 C7.01356938,27.3383607 12.9594545,33.2439344 20.2661914,33.2439344 Z" id="Shape" fill="#B4975A"></path>
            <path d="M20.1862967,7.86098361 C18.8168612,7.86098361 17.7022967,8.96786885 17.7022967,10.3272131 C17.7022967,11.6878689 18.8168612,12.7934426 20.1862967,12.7934426 C21.5557321,12.7934426 22.6709569,11.6878689 22.6709569,10.3272131 C22.6709569,8.96786885 21.5557321,7.86098361 20.1862967,7.86098361 Z M18.972689,11.4754098 C18.8175215,11.4760656 18.701311,11.3606557 18.6286794,11.2570492 C18.5474641,11.1370492 18.4953014,10.9940984 18.4986029,10.8222951 L18.4986029,10.8137705 C18.7270622,10.9396721 18.9938182,11.0295082 19.2843445,11.0937705 C19.2698182,11.2911475 19.1701148,11.4734426 18.972689,11.4754098 Z M20.6630239,11.5888525 C20.548134,11.695082 20.3942871,11.7685246 20.1849761,11.7685246 C19.9789665,11.7685246 19.8211579,11.695082 19.7089091,11.5888525 C19.5920383,11.4845902 19.5095024,11.3370492 19.5068612,11.1422951 C19.5068612,11.1370492 19.5068612,11.1331148 19.5101627,11.1331148 C19.9175598,11.2013115 20.4616364,11.1960656 20.8644115,11.1370492 C20.8624306,11.3370492 20.7785742,11.4845902 20.6630239,11.5888525 Z M21.7544785,11.2472131 C21.6811866,11.3547541 21.5748804,11.4636066 21.4190526,11.4754098 C21.341799,11.4806557 21.265866,11.4498361 21.2137033,11.402623 C21.1377703,11.3331148 21.0994737,11.2295082 21.0849474,11.0937705 C21.3781148,11.0327869 21.6435502,10.9436066 21.870689,10.8157377 C21.8733301,10.8157377 21.8739904,10.8177049 21.8739904,10.8196721 C21.879933,10.9718033 21.8356938,11.1298361 21.7544785,11.2472131 Z M21.8772919,10.8078689 C21.870689,10.6977049 21.8416364,10.6104918 21.7868325,10.5377049 C21.7353301,10.4695082 21.6626986,10.4104918 21.5544115,10.4091803 C21.3781148,10.4065574 21.2665263,10.5291803 21.1971962,10.6406557 C21.1159809,10.7672131 21.0730622,10.9213115 21.0823062,11.0937705 C21.0123158,11.1068852 20.9337416,11.1265574 20.8644115,11.132459 C20.8584689,10.9344262 20.7772536,10.7888525 20.6623636,10.6813115 C20.5487943,10.5777049 20.3916459,10.5036066 20.1843158,10.5036066 C19.9783062,10.5036066 19.8257799,10.5790164 19.7095694,10.6813115 C19.591378,10.7862295 19.5134641,10.9344262 19.5035598,11.132459 C19.4282871,11.1219672 19.3543349,11.1095082 19.2863254,11.0918033 C19.2955694,10.7960656 19.1813397,10.5659016 18.9898565,10.4557377 C18.8749665,10.3888525 18.7283828,10.4006557 18.639244,10.477377 C18.554067,10.5481967 18.5052057,10.6616393 18.4972823,10.8052459 C18.4860574,10.8091803 18.1902488,10.5508197 18.1195981,10.4590164 C18.1195981,10.4590164 18.1182775,10.4583607 18.1182775,10.4570492 C18.1156364,10.4144262 18.1129952,10.3711475 18.1129952,10.3272131 C18.1129952,9.19344262 19.0426794,8.2695082 20.1843158,8.2695082 C21.3272727,8.2695082 22.2569569,9.19278689 22.2569569,10.3272131 C22.2569569,10.3606557 22.2569569,10.3921311 22.2556364,10.424918 C22.2074354,10.504918 22.1004689,10.6583607 21.8772919,10.8078689 Z M20.1691292,9.33639344 C19.9789665,9.35016393 19.8264402,9.42098361 19.7188134,9.52721311 C19.6171292,9.62819672 19.5491196,9.76918033 19.5332727,9.93180328 C19.9446316,9.97639344 20.4312632,9.97180328 20.8393206,9.9357377 C20.8214928,9.7547541 20.7495215,9.61442623 20.6339713,9.50885246 C20.5375694,9.42229508 20.3586316,9.3252459 20.1691292,9.33639344 Z M19.0789952,9.35344262 C18.9535407,9.31672131 18.830067,9.3842623 18.763378,9.44459016 C18.6742392,9.5252459 18.6108517,9.64459016 18.5798182,9.76590164 C18.8095981,9.83409836 19.0572057,9.88393443 19.3266029,9.91278689 C19.3615981,9.66557377 19.2797225,9.41245902 19.0789952,9.35344262 Z M21.3503828,9.34229508 C21.114,9.36065574 21.0057129,9.63868852 21.0486316,9.91147541 C21.3173684,9.88196721 21.5669569,9.8347541 21.794756,9.7652459 C21.7716459,9.66557377 21.7260861,9.57311475 21.666,9.49770492 C21.5973301,9.41836066 21.4936651,9.3304918 21.3503828,9.34229508 Z" id="Shape" fill="#00234B"></path>
            <path d="M17.6679617,16.3101639 L13.7735885,10.6406557 C13.7735885,10.6406557 13.3556268,10.5921311 12.9944498,10.8288525 C12.6240287,11.0714754 12.5315885,11.4721311 12.5315885,11.4721311 L16.7098852,16.8931148 C17.0017321,16.664918 17.3219713,16.4688525 17.6679617,16.3101639 Z M24.0172823,16.6511475 L28.0338086,11.4734426 C28.0338086,11.4734426 27.9407081,11.0727869 27.5709474,10.8308197 C27.20911,10.5940984 26.7911483,10.642623 26.7911483,10.642623 L22.9997799,16.1521311 C23.5735694,16.362623 23.9103158,16.5803279 23.9763445,16.6262295 L24.0172823,16.6511475 Z M15.0175694,27.7304918 C14.8518373,27.6432787 14.575177,27.5370492 14.0958086,27.4321311 C13.5398469,27.3298361 13.3800574,27.3311475 13.119244,27.3593443 C12.2694545,27.427541 11.7636746,27.8393443 11.7418852,27.8577049 L11.644823,27.9383607 L11.6751962,28.0616393 C11.7577321,28.4032787 11.9914737,29.2098361 12.3962297,29.3140984 C12.4371675,29.3232787 13.1991388,29.4754098 13.7940574,29.4891803 C14.7435502,29.5068852 15.0756746,29.3193443 15.1119904,29.2996721 L15.1509474,29.2754098 L18.4279522,24.0845902 C18.2476938,24.0295082 18.073378,23.9691803 17.9056651,23.9022951 C17.0836077,25.0163934 15.1747177,27.5127869 15.0175694,27.7304918 Z M28.8155885,27.8570492 C28.793799,27.8393443 28.2873589,27.427541 27.4382297,27.3586885 C27.1787368,27.3304918 27.0176268,27.3285246 26.4623254,27.4308197 C25.9816364,27.5357377 25.7056364,27.6413115 25.5399043,27.7291803 C25.392,27.5245902 23.6930813,25.3016393 22.8082967,24.1088525 C22.636622,24.1534426 22.4418373,24.197377 22.2285646,24.2360656 L25.4078469,29.2727869 L25.4461435,29.2970492 C25.481799,29.3160656 25.8145837,29.5036066 26.7647368,29.4852459 C27.3589952,29.4721311 28.1209665,29.32 28.1625646,29.3108197 C28.566,29.2065574 28.8004019,28.3986885 28.8829378,28.0583607 L28.9126507,27.935082 L28.8155885,27.8570492 Z" id="Shape" fill="#00234B"></path>
            <path d="M20.9205359,15.7383607 C21.2183254,14.6793443 21.7650431,13.8268852 21.7650431,13.8268852 L21.7650431,13.2944262 C20.0964976,13.4131148 18.6095311,13.2944262 18.6095311,13.2944262 L18.6095311,13.8268852 C18.6095311,13.8268852 19.1410622,14.7009836 19.4375311,15.8032787 C19.7881435,15.7534426 20.1440383,15.7265574 20.4992727,15.7265574 C20.6445359,15.7259016 20.7838565,15.7311475 20.9205359,15.7383607 Z" id="Shape" fill="#00234B"></path>
            <path d="M17.7557799,30.7711475 L17.7557799,29.0255738 L17.5623158,29.0255738 L16.760067,29.5095082 L16.760067,29.7763934 L17.1668038,29.5527869 C17.164823,29.5540984 17.1727464,29.5527869 17.1813301,29.5514754 C17.1813301,29.5540984 17.1813301,30.7757377 17.1813301,30.7757377 C17.1813301,30.944918 17.1813301,30.944918 16.9905072,31.0045902 L16.7699713,31.0714754 L16.7699713,31.2721311 L16.9145742,31.2655738 L17.3932823,31.255082 L18.1836459,31.2688525 L18.1876077,31.0701639 L17.9069856,30.9888525 C17.7643636,30.947541 17.7557799,30.9436066 17.7557799,30.7711475 Z" id="Shape" fill="#00234B"></path>
            <path d="M21.3728325,30.7711475 L21.3728325,29.0255738 L21.1793684,29.0255738 L20.3771196,29.5095082 L20.3771196,29.7763934 L20.7831962,29.5527869 C20.780555,29.5540984 20.789799,29.5527869 20.7983828,29.5514754 C20.7983828,29.5540984 20.7983828,30.7757377 20.7983828,30.7757377 C20.7983828,30.944918 20.7983828,30.944918 20.6075598,31.0045902 L20.3870239,31.0714754 L20.3870239,31.2721311 L20.5316268,31.2655738 L21.0103349,31.255082 L21.8006986,31.2688525 L21.8046603,31.0701639 L21.5246986,30.9888525 C21.3820766,30.947541 21.3728325,30.9436066 21.3728325,30.7711475 Z" id="Shape" fill="#00234B"></path>
            <path d="M19.2315215,29.052459 C18.6953684,29.052459 18.3751292,29.322623 18.3751292,29.7757377 C18.3751292,30.1711475 18.643866,30.4255738 19.0605072,30.4255738 C19.2328421,30.4255738 19.3787656,30.3757377 19.5147847,30.2977049 C19.4784689,30.717377 19.2024689,31.0104918 18.8003541,31.0104918 C18.705933,31.0104918 18.6220766,30.9934426 18.5230335,30.9554098 L18.4556842,30.9291803 L18.3764498,31.1521311 L18.4371962,31.1763934 C18.6082105,31.2504918 18.7759234,31.2845902 18.9707081,31.2845902 C19.6692919,31.2845902 20.1374354,30.757377 20.1374354,29.975082 C20.1374354,29.3816393 19.8158756,29.052459 19.2315215,29.052459 Z M19.5299713,30.0222951 C19.4282871,30.0754098 19.3582967,30.0970492 19.2744402,30.0970492 C19.1219139,30.0970492 18.9799522,30.0472131 18.9799522,29.6793443 C18.9799522,29.5108197 19.0228708,29.3108197 19.2288804,29.3108197 C19.4282871,29.3108197 19.5299713,29.5304918 19.5299713,29.9619672 C19.5299713,29.962623 19.5299713,29.9921311 19.5299713,30.0222951 Z" id="Shape" fill="#00234B"></path>
            <path d="M23.0195885,29.9344262 C22.8465933,29.9344262 22.6953876,29.9829508 22.5593684,30.0577049 C22.6075694,29.6006557 22.8611196,29.3232787 23.2744593,29.3232787 C23.3682201,29.3232787 23.4533971,29.3370492 23.5491388,29.3698361 L23.611866,29.3901639 L23.6996842,29.1737705 L23.6329952,29.1495082 C23.464622,29.082623 23.2929474,29.052459 23.0948612,29.052459 C22.3903349,29.052459 21.9367177,29.5711475 21.9367177,30.3704918 C21.9367177,30.9855738 22.2437512,31.2963934 22.8512153,31.2963934 C23.3735024,31.2963934 23.6983636,31.0236066 23.6983636,30.5829508 C23.6996842,30.202623 23.4184019,29.9344262 23.0195885,29.9344262 Z M22.8485742,31.0491803 C22.6973684,31.0491803 22.5415407,30.9711475 22.5415407,30.3908197 C22.5415407,30.3908197 22.5415407,30.362623 22.5415407,30.3337705 C22.6267177,30.2859016 22.7026507,30.2616393 22.79311,30.2616393 C22.9205455,30.2616393 23.0908995,30.3036066 23.0908995,30.6583607 C23.0908995,30.9154098 23.0096842,31.0491803 22.8485742,31.0491803 Z" id="Shape" fill="#00234B"></path>
            <path d="M20.2589282,6.18229508 C12.5692249,6.18229508 6.31300478,12.3954098 6.31300478,20.0314754 C6.31300478,27.667541 12.5692249,33.8786885 20.2589282,33.8786885 C27.9466507,33.8786885 34.2035311,27.667541 34.2035311,20.0314754 C34.2028708,12.3934426 27.9453301,6.18229508 20.2589282,6.18229508 Z M20.2661914,33.2439344 C12.9601148,33.2439344 7.01356938,27.3383607 7.01356938,20.0819672 C7.01356938,12.8242623 12.9601148,6.92131148 20.2661914,6.92131148 C27.5722679,6.92131148 33.5181531,12.8242623 33.5181531,20.0819672 C33.5188134,27.3383607 27.5729282,33.2439344 20.2661914,33.2439344 Z" id="Shape" fill="#FFFFFF"></path>
            <path d="M20.2661914,1.26098361 C9.86270813,1.26098361 1.39782775,9.66688525 1.39782775,19.9986885 C1.39782775,30.3318033 9.86270813,38.7390164 20.2661914,38.7390164 C30.6703349,38.7390164 39.134555,30.3318033 39.134555,19.9986885 C39.1352153,9.66688525 30.6703349,1.26098361 20.2661914,1.26098361 Z M20.2576077,38.0478689 C10.2542584,38.0478689 2.11555981,29.9659016 2.11555981,20.0301639 C2.11555981,10.0957377 10.2535981,2.01245902 20.2576077,2.01245902 C30.2622775,2.01245902 38.3989952,10.095082 38.3989952,20.0308197 C38.3983349,29.9659016 30.2622775,38.0478689 20.2576077,38.0478689 Z" id="Shape" fill="#FFFFFF"></path>
            <path d="M11.7577321,32.2944262 C11.2512919,31.9580328 10.6279809,32.0911475 10.3150048,32.5540984 L10.3123636,32.5580328 C9.99938756,33.0216393 10.1076746,33.637377 10.6141148,33.9731148 C11.1198947,34.3121311 11.7418852,34.1777049 12.0555215,33.7140984 L12.0594833,33.7095082 C12.3711388,33.2478689 12.2615311,32.6321311 11.7577321,32.2944262 Z M11.6791579,33.4616393 L11.6751962,33.467541 C11.4870144,33.7468852 11.1324402,33.8380328 10.8419139,33.6459016 C10.5527081,33.4511475 10.5031866,33.0839344 10.6907081,32.8045902 L10.6933493,32.7993443 C10.8828517,32.5193443 11.2387464,32.4288525 11.5286124,32.6216393 C11.8178182,32.815082 11.8673397,33.1836066 11.6791579,33.4616393 Z" id="Shape" fill="#FFFFFF"></path>
            <polygon id="Shape" fill="#FFFFFF" points="12.2602105 34.9219672 12.6524211 35.1055738 12.9792632 34.4203279 13.8297129 34.8209836 13.9980861 34.4668852 13.1469761 34.0662295 13.3259139 33.6898361 14.2925742 34.1403279 14.4602871 33.7868852 13.1014163 33.1521311"></polygon>
            <path d="M16.7158278,34.4668852 L15.4619426,36.212459 L15.8950909,36.3068852 L16.1651483,35.9154098 L16.9806029,36.095082 L17.0611579,36.5619672 L17.5048708,36.6590164 L17.1067177,34.5508197 L16.7158278,34.4668852 Z M16.39889,35.5770492 L16.7937416,35.0144262 L16.9125933,35.6918033 L16.39889,35.5770492 Z" id="Shape" fill="#FFFFFF"></path>
            <polygon id="Shape" fill="#FFFFFF" points="19.3173589 35.682623 18.8459139 34.8281967 18.3777703 34.8019672 18.2708038 36.76 18.6953684 36.7816393 18.7646986 35.5127869 19.2698182 36.3685246 19.2797225 36.3691803 19.8792632 35.5632787 19.8105933 36.8432787 20.2404402 36.8642623 20.3474067 34.907541 19.8792632 34.8839344"></polygon>
            <polygon id="Shape" fill="#FFFFFF" points="21.5695981 36.4006557 21.5299809 35.9927869 22.4543828 35.9022951 22.4174067 35.5219672 21.4916842 35.6111475 21.4540478 35.215082 22.5045646 35.1134426 22.4675885 34.7318033 20.9872249 34.877377 21.1780478 36.8236066 22.6722775 36.6793443 22.6339809 36.2983607"></polygon>
            <path d="M24.8030239,34.8819672 L24.8017033,34.8754098 C24.7587847,34.6963934 24.6637033,34.5613115 24.5309856,34.4793443 C24.3744976,34.3836066 24.168488,34.3613115 23.9248421,34.4209836 L23.0486411,34.6314754 L23.5154641,36.5344262 L23.9373876,36.4334426 L23.7868421,35.824918 L24.1130239,35.7468852 L24.1196268,35.7442623 L24.6802105,36.2531148 L25.173445,36.1344262 L24.5375885,35.5678689 C24.759445,35.4236066 24.8782967,35.187541 24.8030239,34.8819672 Z M24.1249091,35.3534426 L23.6970431,35.4557377 L23.5643254,34.9088525 L23.9822871,34.8091803 C24.1882967,34.76 24.3368612,34.8222951 24.3811005,35.0013115 L24.3817608,35.0078689 C24.4200574,35.1659016 24.3302584,35.3036066 24.1249091,35.3534426 Z" id="Shape" fill="#FFFFFF"></path>
            <rect id="Rectangle-path" fill="#FFFFFF" transform="translate(25.700157, 34.905351) rotate(69.738354) translate(-25.700157, -34.905351) " x="24.7140406" y="34.5774897" width="1.97223343" height="1"></rect>
            <path d="M27.9136364,34.6170492 C27.6105646,34.7672131 27.2738182,34.6236066 27.1212919,34.3252459 L27.1199713,34.3186885 C26.9661244,34.0190164 27.0546029,33.6668852 27.3523923,33.517377 C27.5273684,33.4295082 27.7036651,33.4334426 27.9024115,33.4872131 L28.004756,33.0819672 C27.7591292,33.0045902 27.5049187,32.9940984 27.1734545,33.162623 C26.6333397,33.4334426 26.4643062,34.0301639 26.7171962,34.5259016 L26.7198373,34.5331148 C26.976689,35.0347541 27.5643445,35.2367213 28.0813493,34.9763934 C28.4200766,34.8045902 28.5607177,34.5836066 28.6445742,34.3009836 L28.2701914,34.1783607 C28.1955789,34.3718033 28.1143636,34.5147541 27.9136364,34.6170492 Z" id="Shape" fill="#FFFFFF"></path>
            <path d="M28.8710526,32.1672131 L29.3418373,34.2590164 L29.7003732,34.0019672 L29.5907656,33.5422951 L30.2688804,33.0583607 L30.6723158,33.3121311 L31.040756,33.0498361 L29.1959139,31.9370492 L28.8710526,32.1672131 Z M29.9189282,32.8393443 L29.4923828,33.1436066 L29.331933,32.4740984 L29.9189282,32.8393443 Z" id="Shape" fill="#FFFFFF"></path>
            <path d="M7.9425933,29.5593443 L7.74252632,29.2983607 C7.47312919,28.9462295 7.06903349,28.8065574 6.70323445,29.0845902 L6.69927273,29.0872131 C6.37837321,29.3304918 6.3275311,29.7252459 6.61277512,30.0990164 L7.10402871,30.7383607 L8.68013397,29.547541 L8.41667943,29.2045902 L7.9425933,29.5593443 Z M7.15421053,30.1560656 L6.94952153,29.8898361 C6.81680383,29.7167213 6.81878469,29.5481967 6.97395215,29.4301639 L6.97791388,29.427541 C7.11327273,29.3252459 7.29419139,29.347541 7.4262488,29.52 L7.63555981,29.7927869 L7.15421053,30.1560656 Z" id="Shape" fill="#FFFFFF"></path>
            <path d="M7.20967464,27.4413115 L6.65437321,27.744918 L6.49194258,27.452459 L6.48930144,27.4465574 L6.84123445,26.7744262 L6.59494737,26.3311475 L6.20801914,27.0918033 C6.00399043,26.9147541 5.74647847,26.8616393 5.46519617,27.0163934 L5.45991388,27.0183607 C5.29748325,27.107541 5.18919617,27.2340984 5.14495694,27.3829508 C5.09345455,27.56 5.12448804,27.7619672 5.24730144,27.9803279 L5.68243062,28.7691803 L7.41832536,27.8236066 L7.20967464,27.4413115 Z M5.81844976,28.202623 L5.60979904,27.8255738 C5.50811483,27.64 5.52792344,27.4806557 5.69233493,27.3914754 L5.69827751,27.3888525 C5.84354067,27.3095082 6.00134928,27.3606557 6.10435407,27.544918 L6.31762679,27.9304918 L5.81844976,28.202623 Z" id="Shape" fill="#FFFFFF"></path>
            <path d="M5.44934928,26.1993443 C5.98154067,26.0144262 6.26546411,25.4544262 6.06407656,24.8819672 C5.862689,24.3081967 5.28097608,24.0432787 4.75010526,24.2281967 L4.74350239,24.2288525 C4.21263158,24.4131148 3.92738756,24.975082 4.12811483,25.547541 C4.33082297,26.1213115 4.91253589,26.3842623 5.44406699,26.2019672 L5.44934928,26.1993443 Z M5.28955981,25.7763934 C4.968,25.8878689 4.62729187,25.7495082 4.51108134,25.4229508 C4.39355024,25.092459 4.5797512,24.7672131 4.89999043,24.6544262 L4.90593301,24.6531148 C5.22551196,24.5416393 5.56886124,24.6786885 5.6837512,25.0091803 C5.80062201,25.3370492 5.61508134,25.6629508 5.29550239,25.775082 L5.28955981,25.7763934 Z" id="Shape" fill="#FFFFFF"></path>
            <polygon id="Shape" fill="#FFFFFF" points="5.47245933 22.8511475 4.71841148 22.984918 4.55267943 22.0609836 4.16311005 22.1291803 4.32818182 23.0518033 3.91352153 23.1278689 3.726 22.0793443 3.33444976 22.1462295 3.59922488 23.6216393 5.54905263 23.277377"></polygon>
            <polygon id="Shape" fill="#FFFFFF" points="5.177311 19.7095082 4.78840191 19.7219672 4.82603828 20.7888525 4.41203828 20.8045902 4.37902392 19.8767213 3.99077512 19.8918033 4.02378947 20.8183607 3.62233493 20.8327869 3.58535885 19.7783607 3.19777033 19.7927869 3.24993301 21.2740984 5.22947368 21.2052459"></polygon>
            <path d="M3.79599043,18.9816393 L3.80193301,18.9816393 C4.19414354,19.0222951 4.32950239,18.7790164 4.47278469,18.3947541 C4.59229665,18.077377 4.65502392,18.0157377 4.76397129,18.0262295 L4.77057416,18.0268852 C4.88546411,18.0386885 4.94555024,18.1508197 4.92574163,18.3291803 C4.90197129,18.5521311 4.78972249,18.7272131 4.625311,18.8891803 L4.90593301,19.1763934 C5.14033493,18.9619672 5.27701435,18.6721311 5.30738756,18.3777049 C5.35030622,17.9540984 5.16344498,17.6360656 4.77123445,17.5947541 L4.76595215,17.5947541 C4.42194258,17.5593443 4.25687081,17.7685246 4.10962679,18.1547541 C3.9868134,18.4839344 3.935311,18.5632787 3.8078756,18.5501639 L3.80127273,18.5501639 C3.70619139,18.5403279 3.64016268,18.4465574 3.65600957,18.2813115 C3.67185646,18.1160656 3.76429665,17.9534426 3.90427751,17.7921311 L3.60054545,17.5357377 C3.42094737,17.7167213 3.30473684,17.9514754 3.27436364,18.2354098 C3.23210526,18.6347541 3.43943541,18.944918 3.79599043,18.9816393 Z" id="Shape" fill="#FFFFFF"></path>
            <path d="M4.08057416,16.7855738 L4.08585646,16.7855738 C4.46750239,16.8793443 4.63653589,16.6563934 4.82867943,16.295082 C4.99111005,15.9967213 5.06242105,15.9442623 5.16938756,15.9711475 L5.17599043,15.972459 C5.28757895,15.9993443 5.33049761,16.1206557 5.28823923,16.292459 C5.23343541,16.5101639 5.10005742,16.6668852 4.91451675,16.8052459 L5.1522201,17.1272131 C5.41567464,16.9462295 5.58866986,16.6786885 5.66130144,16.3895082 C5.76166507,15.9790164 5.61838278,15.6367213 5.23541627,15.5442623 L5.23079426,15.5422951 C4.89536842,15.4603279 4.70124402,15.6439344 4.50381818,16.0078689 C4.33742584,16.3180328 4.27535885,16.3895082 4.14990431,16.36 L4.14264115,16.357377 C4.05020096,16.335082 3.99605742,16.2334426 4.03699522,16.0701639 C4.07595215,15.9101639 4.18820096,15.76 4.349311,15.6190164 L4.08519617,15.3232787 C3.8791866,15.4793443 3.73458373,15.6944262 3.6645933,15.975082 C3.56819139,16.3659016 3.73062201,16.6996721 4.08057416,16.7855738 Z" id="Shape" fill="#FFFFFF"></path>
            <rect id="Rectangle-path" fill="#FFFFFF" transform="translate(5.208444, 14.421502) rotate(-159.934166) translate(-5.208444, -14.421502) " x="4.21900267" y="14.093633" width="1.97888246" height="1"></rect>
            <path d="M5.51207656,13.5855738 L5.51735885,13.587541 C6.01521531,13.8472131 6.624,13.667541 6.9052823,13.1291803 C7.18656459,12.5914754 6.9818756,11.9881967 6.48203828,11.7291803 L6.47675598,11.7265574 C5.97691866,11.4688525 5.37077512,11.6485246 5.08883254,12.1855738 C4.80755024,12.7239344 5.01223923,13.3265574 5.51207656,13.5855738 Z M5.44274641,12.3763934 C5.60451675,12.0642623 5.97031579,11.9763934 6.27206699,12.1304918 L6.27734928,12.1337705 C6.5777799,12.2891803 6.71115789,12.6308197 6.55004785,12.9396721 C6.38827751,13.2491803 6.02247847,13.3383607 5.72138756,13.1842623 L5.71676555,13.1816393 C5.41567464,13.024918 5.28163636,12.6832787 5.44274641,12.3763934 Z" id="Shape" fill="#FFFFFF"></path>
            <polygon id="Shape" fill="#FFFFFF" points="7.98221053 11.3068852 6.97923445 10.5481967 8.5612823 10.5481967 8.78776077 10.2577049 7.21099522 9.06360656 6.94952153 9.40393443 7.92014354 10.1377049 6.38827751 10.1370492 6.14529187 10.4544262 7.72073684 11.6459016"></polygon>
            <path d="M9.47644019,9.52918033 L9.30344498,9.0852459 L9.91355024,8.51409836 L10.35,8.71213115 L10.6821244,8.40131148 L8.69532057,7.53836066 L8.40347368,7.81114754 L9.15289952,9.83278689 L9.47644019,9.52918033 Z M9.53652632,8.34295082 L9.15355981,8.70032787 L8.903311,8.05836066 L9.53652632,8.34295082 Z" id="Shape" fill="#FFFFFF"></path>
            <polygon id="Shape" fill="#FFFFFF" points="12.3070909 7.26885246 12.081933 6.94557377 11.2684593 7.50491803 10.3671675 6.21180328 10.0079713 6.45901639 11.1377225 8.0747541"></polygon>
            <path d="M13.3397799,5.59016393 C13.5589952,6.12786885 14.1136364,6.3704918 14.6867656,6.14163934 C15.0228517,6.00721311 15.2301818,5.77311475 15.3543158,5.53967213 L15.0334163,4.74688525 L14.2351292,5.06491803 L14.3770909,5.41114754 L14.7831675,5.24852459 L14.8888134,5.50819672 C14.8155215,5.6242623 14.7006316,5.71278689 14.5514067,5.76918033 C14.2258852,5.89967213 13.8950813,5.74754098 13.7610431,5.41377049 L13.7590622,5.40918033 C13.6342679,5.09770492 13.7630239,4.74754098 14.0568517,4.63016393 C14.2681435,4.5442623 14.4219904,4.56196721 14.6121531,4.62229508 L14.74289,4.21508197 C14.4847177,4.1304918 14.2496555,4.12131148 13.919512,4.2557377 C13.36289,4.47737705 13.1278278,5.06295082 13.3384593,5.58295082 L13.3397799,5.59016393 Z" id="Shape" fill="#FFFFFF"></path>
            <path d="M15.8158565,4.65836066 C15.9340478,5.2052459 16.4583158,5.55737705 17.054555,5.43147541 C17.6521148,5.30491803 17.9908421,4.76327869 17.8726507,4.21639344 L17.8713301,4.2104918 C17.753799,3.66360656 17.2301914,3.31278689 16.6319713,3.43868852 C16.0357321,3.5652459 15.6970048,4.10622951 15.8145359,4.65311475 L15.8158565,4.65836066 Z M16.7112057,3.83081967 C17.0552153,3.75803279 17.3563062,3.98098361 17.4282775,4.31147541 L17.4295981,4.31672131 C17.4995885,4.64655738 17.3199904,4.9652459 16.9773014,5.03868852 C16.6332919,5.11081967 16.3308804,4.88852459 16.2595694,4.56 L16.2582488,4.55344262 C16.1889187,4.22360656 16.3678565,3.90229508 16.7112057,3.83081967 Z" id="Shape" fill="#FFFFFF"></path>
            <polygon id="Shape" fill="#FFFFFF" points="20.1466794 5.04786885 20.12489 4.6557377 19.1377608 4.7095082 19.0506029 3.13770492 18.6154737 3.16065574 18.7250813 5.1252459"></polygon>
            <polygon id="Shape" fill="#FFFFFF" points="21.2249282 4.33704918 22.1671579 4.41245902 22.1988517 4.01901639 21.2553014 3.94622951 21.2902967 3.52655738 22.3593014 3.61245902 22.3909952 3.22032787 20.8875215 3.10098361 20.7297129 5.06295082 21.1628612 5.09508197"></polygon>
            <polygon id="Shape" fill="#FFFFFF" points="24.3870431 5.23213115 23.3365263 4.99803279 23.4283062 4.59606557 24.3388421 4.79868852 24.4246794 4.42295082 23.5121627 4.22032787 23.602622 3.83016393 24.6366316 4.06098361 24.7218086 3.68721311 23.264555 3.36 22.8287656 5.27868852 24.3005455 5.60852459"></polygon>
            <path d="M25.5544306,5.36786885 L25.8674067,5.49114754 L25.872689,5.49245902 L26.0390813,6.23147541 L26.5138278,6.41508197 L26.3190431,5.58819672 C26.5884402,5.59213115 26.8221818,5.46622951 26.9383923,5.17180328 L26.9397129,5.16721311 C27.0083828,4.99278689 27.0083828,4.82557377 26.9489569,4.6852459 C26.8730239,4.52 26.7171962,4.38295082 26.482134,4.2904918 L25.6389474,3.9652459 L24.9192344,5.79672131 L25.3239904,5.9547541 L25.5544306,5.36786885 Z M25.9010813,4.48590164 L26.3045167,4.64327869 C26.5012823,4.71803279 26.5871196,4.85508197 26.5197703,5.02754098 L26.5171292,5.03344262 C26.4563828,5.18688525 26.3025359,5.24786885 26.1057703,5.17180328 L25.6937512,5.01311475 L25.9010813,4.48590164 Z" id="Shape" fill="#FFFFFF"></path>
            <path d="M27.6343349,7.05442623 C28.0054163,7.26295082 28.3758373,7.22032787 28.570622,6.88196721 L28.5732632,6.87606557 C28.7442775,6.57836066 28.6181627,6.34360656 28.3203732,6.05377049 C28.0661627,5.81180328 28.0133397,5.73180328 28.0780478,5.61967213 L28.0820096,5.61442623 C28.1282297,5.53114754 28.2444402,5.5095082 28.3883828,5.59147541 C28.5336459,5.67344262 28.6485359,5.82229508 28.7383349,6.01311475 L29.0968708,5.84196721 C29.0011292,5.60393443 28.8340766,5.40393443 28.5831675,5.26229508 C28.2318947,5.06229508 27.8634545,5.12655738 27.685177,5.43737705 L27.6825359,5.44262295 C27.4897321,5.78295082 27.657445,6.00262295 27.9525933,6.28721311 C28.1988804,6.52327869 28.2299139,6.60590164 28.17511,6.70098361 L28.1737895,6.70622951 C28.1150239,6.8052459 27.9869282,6.81377049 27.8317608,6.72655738 C27.6343349,6.61508197 27.5187847,6.44196721 27.4362488,6.22885246 L27.0592249,6.36786885 C27.1622297,6.66754098 27.3735215,6.90688525 27.6343349,7.05442623 Z" id="Shape" fill="#FFFFFF"></path>
            <path d="M30.0622105,6.70032787 L30.284067,6.39278689 L29.9123254,6.12852459 L29.6488708,6.49377049 L29.7914928,6.5947541 C29.7102775,6.73311475 29.5735981,6.75737705 29.4025837,6.66098361 L29.3292919,6.82557377 C29.6046316,7.01442623 29.8449761,7.00196721 30.0622105,6.70032787 Z" id="Shape" fill="#FFFFFF"></path>
            <path d="M31.1312153,9.11934426 L31.7076459,9.72393443 L31.5088995,10.1567213 L31.8225359,10.4865574 L32.6888325,8.51147541 L32.4134928,8.22360656 L30.3811292,8.97311475 L30.6855215,9.29180328 L31.1312153,9.11934426 Z M32.1658852,8.72065574 L31.8813014,9.34819672 L31.5181435,8.96786885 L32.1658852,8.72065574 Z" id="Shape" fill="#FFFFFF"></path>
            <path d="M32.2953014,10.6393443 C32.2583254,10.9534426 32.344823,11.2596721 32.5164976,11.5036066 C32.7614641,11.852459 33.1133971,11.9711475 33.4375981,11.747541 L33.4415598,11.7442623 C33.7254833,11.5468852 33.7135981,11.2819672 33.5689952,10.895082 C33.4448612,10.5659016 33.4316555,10.4721311 33.538622,10.3980328 L33.5425837,10.3940984 C33.6231388,10.3403279 33.7347273,10.3698361 33.8311292,10.5055738 C33.9268708,10.6413115 33.9651675,10.8216393 33.9651675,11.0360656 L34.3639809,11.0340984 C34.380488,10.7783607 34.3144593,10.5259016 34.1500478,10.2904918 C33.9182871,9.96262295 33.5584306,9.86098361 33.2639426,10.0662295 L33.2599809,10.0688525 C32.9364402,10.2904918 32.9932249,10.5632787 33.1358469,10.947541 C33.258,11.264918 33.2494163,11.3521311 33.1582967,11.4157377 L33.1549952,11.4190164 C33.0585933,11.4845902 32.9384211,11.4367213 32.8380574,11.2937705 C32.7079809,11.1081967 32.6789282,10.9029508 32.6960957,10.6727869 L32.2953014,10.6393443 Z" id="Shape" fill="#FFFFFF"></path>
            <path d="M34.2490909,12.7691803 C34.3230431,13.0996721 34.3038947,13.1855738 34.2061722,13.2354098 L34.2028708,13.2393443 C34.0992057,13.2904918 33.9869569,13.227541 33.9057416,13.0688525 C33.8040574,12.8701639 33.8000957,12.6629508 33.8515981,12.4380328 L33.4593876,12.3495082 C33.377512,12.6563934 33.4230718,12.9711475 33.5604115,13.2367213 C33.7545359,13.6137705 34.0879809,13.7796721 34.4366124,13.6019672 L34.4438756,13.5993443 C34.7509091,13.4439344 34.7740191,13.1790164 34.686201,12.7757377 C34.6082871,12.4327869 34.6063062,12.3390164 34.7225167,12.2786885 L34.7284593,12.2760656 C34.8149569,12.2340984 34.9219234,12.2760656 34.999177,12.424918 C35.0744498,12.5718033 35.0883158,12.7580328 35.0599234,12.9665574 L35.4547751,13.0190164 C35.5062775,12.7691803 35.475244,12.5114754 35.3438469,12.2557377 C35.1602871,11.8970492 34.8175981,11.7501639 34.4980191,11.9127869 L34.4914163,11.9154098 C34.138823,12.0911475 34.1592919,12.3678689 34.2490909,12.7691803 Z" id="Shape" fill="#FFFFFF"></path>
            <path d="M35.0843541,14.0583607 C34.5488612,14.2321311 34.2510718,14.784918 34.4385933,15.3619672 C34.628756,15.9409836 35.2051866,16.2177049 35.7406794,16.0432787 L35.7459617,16.042623 C36.2814545,15.8681967 36.5779234,15.3160656 36.3897416,14.7396721 C36.2015598,14.1619672 35.6257895,13.8832787 35.0896364,14.0570492 L35.0843541,14.0583607 Z M35.2348995,14.4872131 C35.5584402,14.3829508 35.8978278,14.5265574 36.0047943,14.8583607 C36.1144019,15.187541 35.9222584,15.5108197 35.6000383,15.6144262 L35.5934354,15.6157377 C35.270555,15.7206557 34.9318278,15.5763934 34.8222201,15.2459016 C34.7145933,14.9154098 34.9073971,14.5921311 35.2296172,14.4891803 L35.2348995,14.4872131 Z" id="Shape" fill="#FFFFFF"></path>
            <path d="M35.8925455,16.747541 L35.8885837,16.7481967 C35.3246986,16.8314754 34.9423923,17.3219672 35.0275694,17.8937705 C35.0836938,18.2681967 35.2514067,18.4721311 35.4976938,18.642623 L35.7334163,18.3285246 C35.5703254,18.197377 35.4593971,18.0727869 35.4283636,17.8504918 C35.3775215,17.5180328 35.6238086,17.2465574 35.9592344,17.1960656 L35.9658373,17.1947541 C36.3012632,17.1462295 36.6115981,17.3436066 36.659799,17.6714754 C36.6881914,17.8655738 36.627445,18.0308197 36.5112344,18.2013115 L36.8684498,18.427541 C37.0203158,18.2216393 37.1120957,17.9836066 37.0559713,17.6157377 C36.9668325,17.0157377 36.4491675,16.6655738 35.8925455,16.747541 Z" id="Shape" fill="#FFFFFF"></path>
            <rect id="Rectangle-path" fill="#FFFFFF" transform="translate(36.194762, 19.611574) rotate(-1.678957) translate(-36.194762, -19.611574) " x="35.2052931" y="19.2836954" width="1.97893841" height="1"></rect>
            <path d="M35.1979234,20.76 L35.6244689,20.9790164 L35.5472153,21.8078689 L35.0889761,21.9468852 L35.0467177,22.3967213 L37.1107751,21.7396721 L37.1484115,21.3422951 L35.2401818,20.3213115 L35.1979234,20.76 Z M35.9922488,21.1691803 L36.6076364,21.4865574 L35.9447081,21.6891803 L35.9922488,21.1691803 Z" id="Shape" fill="#FFFFFF"></path>
            <polygon id="Shape" fill="#FFFFFF" points="36.4049282 23.495082 34.8677799 23.1422951 34.7680766 23.5645902 36.307866 23.9180328 36.169866 24.5009836 36.5620766 24.5901639 36.9324976 23.0032787 36.5422679 22.9108197"></polygon>
            <rect id="Rectangle-path" fill="#FFFFFF" transform="translate(35.253916, 25.348647) rotate(19.360894) translate(-35.253916, -25.348647) " x="34.2638675" y="25.0207953" width="1.9800978" height="1"></rect>
            <path d="M34.9588995,26.1934426 L34.9549378,26.1921311 C34.451799,25.9383607 33.8469761,26.1239344 33.5703158,26.6655738 C33.2956364,27.2072131 33.5062679,27.8085246 34.010067,28.0616393 L34.014689,28.0636066 C34.5178278,28.3160656 35.1213301,28.1304918 35.3973301,27.5881967 C35.6720096,27.0472131 35.4626986,26.4465574 34.9588995,26.1934426 Z M35.0414354,27.4045902 C34.8836268,27.7154098 34.5178278,27.8098361 34.2160766,27.6570492 L34.2094737,27.6544262 C33.9064019,27.5029508 33.7684019,27.162623 33.9262105,26.8511475 C34.0853397,26.5390164 34.4498182,26.4459016 34.7535502,26.5993443 L34.7588325,26.5993443 C35.0625646,26.7547541 35.2005646,27.092459 35.0414354,27.4045902 Z" id="Shape" fill="#FFFFFF"></path>
            <polygon id="Shape" fill="#FFFFFF" points="32.5164976 28.4990164 33.524756 29.2459016 31.9427081 29.2629508 31.7208517 29.5580328 33.3101627 30.7337705 33.5683349 30.3895082 32.5897895 29.667541 34.1209952 29.6518033 34.362 29.3304918 32.7720287 28.1560656"></polygon>
            <path d="M23.6627081,20.8878689 L24.3045072,20.7009836 L24.3045072,19.9016393 L20.1367751,19.9016393 L20.1367751,20.7009836 L20.7779139,20.8878689 C21.2341722,21.027541 21.2526603,21.077377 21.2526603,21.44 L21.2526603,22.5272131 C21.0215598,22.5718033 20.5884115,22.5770492 20.3058086,22.5357377 C18.7996938,22.317377 18.3837129,21.2144262 18.3837129,20.0590164 C18.3837129,19.4104918 18.6035885,18.8190164 19.1027656,18.3403279 C19.4599809,17.9986885 20.005378,17.6878689 20.8346986,17.717377 C21.1958756,17.7311475 21.6125167,17.9022951 21.7564593,18.0013115 C22.1691388,18.2872131 22.2655407,18.6242623 22.3751483,19.0380328 L23.4434928,19.0380328 L23.4388708,17.4104918 C23.4388708,17.4104918 22.3619426,16.6780328 20.5012536,16.6780328 C19.0235311,16.6780328 16.1169474,17.2904918 16.1169474,20.16 C16.1169474,21.922623 17.6058947,23.2970492 20.1981818,23.427541 C21.9842584,23.517377 23.1939043,22.9934426 23.1939043,22.9934426 L23.1925837,21.4432787 C23.1899426,21.077377 23.2077703,21.0255738 23.6627081,20.8878689 Z" id="Shape" fill="#FFFFFF"></path>
            <path d="M13.3529856,16.8301639 C13.0419904,16.7954098 12.1433397,16.7868852 12.1433397,16.7868852 L8.47676555,16.7881967 L8.47676555,17.584918 L9.09215311,17.7744262 C9.59000957,17.9344262 9.59000957,17.9816393 9.59000957,18.3468852 L9.59397129,21.8091803 C9.59397129,22.1737705 9.59397129,22.1967213 9.09215311,22.3540984 L8.47874641,22.5285246 L8.47874641,23.3298361 L12.6656268,23.3298361 L12.6656268,22.5285246 L12.0522201,22.3540984 C11.5523828,22.1967213 11.5523828,22.1737705 11.5523828,21.8091803 L11.5550239,20.972459 C11.6197321,20.972459 12.5461148,20.972459 12.5461148,20.972459 C13.457311,20.9586885 14.1948517,20.9022951 14.8538182,20.5304918 C15.4804306,20.1770492 15.8257608,19.5239344 15.8257608,18.84 C15.8257608,17.7377049 14.9482392,16.9921311 13.3529856,16.8301639 Z M13.5081531,19.7167213 C13.3919426,19.8242623 13.1291483,19.9521311 12.9158756,20.0052459 C12.3321818,20.1521311 11.5820957,20.0957377 11.5550239,20.0957377 L11.5550239,17.6354098 C12.0489187,17.6354098 12.9132344,17.5619672 13.4685359,17.9593443 C13.7432153,18.1540984 13.9030048,18.464918 13.9096077,18.864918 C13.9175311,19.1488525 13.8125455,19.4590164 13.5081531,19.7167213 Z" id="Shape" fill="#FFFFFF"></path>
            <path d="M32.0265646,22.3698361 C31.6541627,22.2321311 31.5689856,22.1652459 31.4620191,21.9311475 L28.8611483,16.7901639 L27.7822392,16.7901639 L24.8716938,22.0308197 C24.7667081,22.2281967 24.6716268,22.2727869 24.4279809,22.36 L23.7663732,22.56 L23.7663732,23.3259016 L26.9945167,23.3259016 L26.9945167,22.5416393 L26.277445,22.3580328 C26.1249187,22.3206557 26.1308612,22.2190164 26.1678373,22.1508197 C26.1678373,22.1508197 26.2615981,21.9737705 26.4015789,21.707541 L29.104134,21.707541 C29.2480766,21.9763934 29.2850526,22.0301639 29.3325933,22.1272131 C29.4012632,22.2708197 29.2672249,22.335082 29.0988517,22.3822951 L28.4524306,22.56 L28.4524306,23.3278689 L32.5970526,23.3278689 L32.5970526,22.575082 C32.5970526,22.5731148 32.0272249,22.3698361 32.0265646,22.3698361 Z M26.7310622,21.0819672 C27.1536459,20.2813115 27.747244,19.1416393 27.7895024,19.0583607 C27.8304402,19.1547541 28.3745167,20.2681967 28.7720096,21.0819672 L26.7310622,21.0819672 Z" id="Shape" fill="#FFFFFF"></path>
            <polygon id="Shape" fill="#B4975A" points="134.132699 29.3672131 133.44534 29.3672131 133.44534 29.0183607 135.203024 29.0183607 135.203024 29.3672131 134.515665 29.3672131 134.515665 31.1678689 134.132699 31.1678689"></polygon>
            <polygon id="Shape" fill="#B4975A" points="135.541751 29.0183607 135.948488 29.0183607 136.606134 30.0347541 137.2651 29.0183607 137.669856 29.0183607 137.669856 31.1678689 137.289531 31.1678689 137.289531 29.6262295 136.606134 30.6393443 136.594249 30.6393443 135.917455 29.6321311 135.917455 31.1678689 135.541751 31.1678689"></polygon>
        </g>
    </g>
</svg>
