<?xml version="1.0" standalone="no"?>
<!DOCTYPE svg PUBLIC "-//W3C//DTD SVG 20010904//EN"
 "http://www.w3.org/TR/2001/REC-SVG-20010904/DTD/svg10.dtd">
<svg version="1.0" xmlns="http://www.w3.org/2000/svg"
 width="656.000000pt" height="656.000000pt" viewBox="0 0 656.000000 656.000000"
 preserveAspectRatio="xMidYMid meet">
<metadata>
Created by potrace 1.11, written by Peter Selinger 2001-2013
</metadata>
<g transform="translate(0.000000,656.000000) scale(0.100000,-0.100000)"
fill="#000000" stroke="none">
<path d="M3060 6440 c-1290 -73 -2409 -917 -2833 -2137 -116 -332 -168 -648
-168 -1023 0 -490 99 -928 310 -1365 334 -692 913 -1243 1626 -1547 398 -169
795 -250 1240 -250 312 0 530 27 820 102 887 230 1642 844 2045 1665 167 340
263 658 311 1035 18 139 18 580 1 720 -102 790 -470 1492 -1051 2002 -642 564
-1455 845 -2301 798z m425 -170 c612 -52 1174 -276 1655 -658 123 -98 366
-341 462 -462 348 -439 551 -909 635 -1475 25 -170 25 -619 0 -789 -66 -443
-204 -825 -424 -1177 -679 -1083 -1930 -1619 -3187 -1364 -415 84 -851 280
-1194 537 -1118 838 -1512 2306 -963 3583 138 321 361 650 612 905 526 534
1199 844 1964 904 96 7 330 5 440 -4z"/>
<path d="M3030 6154 c-729 -66 -1347 -350 -1846 -848 -485 -485 -772 -1096
-835 -1780 -16 -170 -5 -517 20 -681 188 -1191 1082 -2135 2261 -2389 218 -47
347 -60 610 -60 255 0 338 7 560 50 725 139 1378 559 1810 1164 381 534 561
1153 529 1820 -59 1197 -889 2252 -2049 2604 -266 80 -499 116 -795 120 -121
2 -240 2 -265 0z m518 -190 c26 -4 32 -9 32 -31 l0 -25 -87 3 -88 4 0 -35 0
-35 70 -5 c68 -5 70 -6 73 -34 l4 -28 -79 3 -78 4 -3 -35 c-5 -71 -10 -80 -44
-80 l-31 0 6 53 c3 28 9 98 13 155 l7 104 86 -7 c47 -3 101 -8 119 -11z m-497
-71 c0 -43 4 -98 7 -123 l7 -45 78 4 77 3 0 -31 0 -31 -79 0 c-43 0 -92 -3
-109 -6 l-30 -6 -6 63 c-3 35 -8 106 -10 157 l-6 92 35 0 35 0 1 -77z m802 17
c53 -12 97 -25 97 -28 0 -4 -3 -16 -6 -28 l-6 -21 -80 19 c-45 10 -82 17 -83
16 -2 -2 -6 -17 -9 -35 -7 -29 -5 -32 26 -38 91 -18 108 -26 108 -46 0 -28
-19 -32 -89 -16 -34 8 -63 12 -65 8 -2 -3 -6 -18 -10 -33 -7 -29 -3 -31 112
-57 24 -5 45 -11 47 -13 8 -8 -8 -48 -19 -48 -22 0 -201 43 -209 50 -5 4 6 74
24 154 27 117 36 145 49 142 8 -3 59 -14 113 -26z m-1066 -6 c51 -39 68 -71
68 -133 0 -47 -5 -64 -27 -93 -51 -67 -164 -87 -227 -41 -50 38 -66 71 -66
133 0 68 20 102 81 138 48 28 130 26 171 -4z m1401 -94 c43 -17 90 -42 103
-56 45 -48 19 -137 -47 -159 -16 -5 -30 -10 -32 -11 -1 0 4 -29 12 -63 8 -33
13 -61 12 -61 -2 0 -17 5 -35 11 -21 8 -33 19 -37 37 -16 73 -25 102 -32 102
-4 0 -17 3 -29 6 -13 4 -23 2 -23 -4 0 -5 -7 -26 -15 -45 -14 -35 -16 -36 -46
-25 -16 6 -28 15 -26 22 3 6 29 71 58 144 29 72 54 132 55 132 1 0 38 -14 82
-30z m-1838 -14 c0 -33 -13 -46 -47 -46 -102 0 -147 -103 -76 -174 34 -34 91
-35 129 -3 20 18 25 28 19 46 -4 12 -12 20 -18 18 -50 -19 -57 -18 -66 5 -8
21 -4 25 37 45 69 32 75 30 101 -33 21 -49 22 -58 10 -81 -38 -71 -169 -106
-237 -64 -46 30 -72 77 -72 134 0 72 28 116 95 151 39 21 125 22 125 2z m2219
-161 c28 -14 81 -69 81 -84 0 -4 -11 -13 -25 -19 -22 -10 -27 -8 -46 19 -34
48 -89 59 -89 18 0 -10 20 -41 45 -69 63 -71 59 -127 -9 -155 -46 -20 -97 -4
-147 46 -43 43 -48 63 -20 79 27 14 29 14 46 -20 17 -33 69 -65 91 -56 25 9
15 37 -31 94 -25 30 -45 63 -45 74 0 25 26 75 42 81 26 11 80 7 107 -8z
m-1009 -170 c810 -122 1487 -665 1768 -1420 119 -317 163 -640 132 -970 -123
-1315 -1370 -2233 -2670 -1965 -742 153 -1353 669 -1629 1375 -52 131 -104
335 -127 490 -24 161 -24 439 0 600 107 736 551 1347 1218 1679 258 129 523
202 838 230 86 8 366 -4 470 -19z m1259 8 l22 -18 -23 -32 c-13 -18 -33 -37
-45 -44 -27 -14 -73 -4 -73 17 0 11 6 13 20 9 26 -8 54 13 40 30 -6 8 -4 18 6
33 18 27 26 27 53 5z m-3090 -92 c34 -50 66 -93 70 -96 5 -3 37 14 71 37 60
42 62 42 76 24 8 -11 14 -23 14 -26 0 -3 -40 -34 -89 -67 l-88 -62 -88 126
-88 126 22 19 c13 10 27 16 31 13 4 -3 35 -45 69 -94z m-175 -180 l147 -64
-24 -24 c-24 -24 -25 -24 -56 -8 l-32 16 -47 -42 c-57 -52 -57 -53 -42 -90 11
-25 10 -32 -5 -49 -10 -11 -21 -20 -25 -20 -5 0 -34 70 -66 156 l-58 157 24
19 c13 10 26 17 30 16 3 -2 73 -32 154 -67z m3652 -62 l22 -21 -65 -146 c-35
-81 -68 -150 -72 -155 -4 -4 -16 2 -26 13 -16 18 -17 24 -5 61 l14 40 -46 46
c-45 45 -46 45 -83 33 -34 -11 -39 -10 -58 9 -12 11 -19 22 -16 24 4 4 299
115 308 116 3 1 15 -8 27 -20z m-3929 -206 c63 -48 116 -90 118 -93 2 -4 -5
-17 -16 -28 -18 -20 -30 -22 -141 -22 l-121 0 76 -57 c42 -32 76 -60 76 -63 0
-3 -7 -15 -17 -27 l-17 -22 -120 90 c-66 49 -121 93 -123 98 -1 4 9 17 22 30
23 21 31 23 135 19 61 -1 111 0 111 4 0 3 -31 29 -70 58 -38 29 -70 54 -70 58
0 7 31 42 38 42 3 0 57 -39 119 -87z m4157 -74 c30 -24 50 -60 59 -106 6 -31
5 -33 -23 -33 -24 0 -31 5 -36 28 -10 41 -32 72 -54 72 -29 0 -32 -15 -15 -72
8 -28 15 -66 15 -84 0 -65 -88 -97 -145 -52 -32 25 -64 91 -65 131 0 23 4 27
29 27 26 0 29 -4 34 -41 6 -46 31 -79 59 -79 28 0 32 24 14 77 -9 25 -16 61
-16 79 0 65 88 97 144 53z m-4385 -266 c45 -34 71 -82 71 -132 -1 -98 -80
-176 -173 -168 -54 5 -91 27 -125 78 -31 45 -28 129 8 178 47 68 157 89 219
44z m4554 -24 c14 -6 34 -28 46 -49 25 -44 29 -120 7 -120 -34 0 -46 13 -46
50 0 41 -29 76 -55 66 -13 -5 -14 -18 -9 -86 6 -75 5 -82 -16 -105 -28 -30
-83 -34 -119 -9 -30 22 -61 89 -61 136 0 42 7 49 38 41 18 -4 22 -13 22 -42 0
-52 20 -86 50 -86 27 0 26 -5 19 124 -2 37 2 48 25 68 30 25 62 29 99 12z
m-4738 -296 c72 -25 134 -50 139 -54 12 -10 -34 -139 -50 -139 -7 0 -72 22
-146 49 -88 33 -132 54 -130 63 6 30 45 128 51 128 3 0 65 -21 136 -47z m4877
-59 c35 -18 65 -58 79 -104 40 -134 -103 -245 -230 -181 -45 23 -67 54 -80
110 -30 136 106 239 231 175z m-5067 -214 c18 -20 18 -21 -2 -43 -26 -28 -35
-55 -28 -78 10 -31 42 -22 66 19 55 92 107 115 162 72 49 -39 43 -131 -13
-193 -28 -31 -29 -31 -48 -13 l-21 18 30 40 c32 45 37 79 14 98 -19 16 -31 7
-71 -57 -20 -29 -45 -58 -58 -62 -48 -19 -106 14 -119 67 -7 29 10 89 35 125
23 32 29 33 53 7z m5189 -233 c61 -47 86 -171 43 -214 -21 -21 -61 3 -51 32
19 61 17 84 -14 115 -63 63 -172 24 -172 -62 0 -24 8 -51 20 -67 18 -26 18
-30 4 -50 -16 -22 -17 -22 -36 -4 -50 44 -64 150 -28 208 47 75 163 96 234 42z
m-5250 -126 c3 -5 -4 -27 -17 -50 -17 -32 -20 -44 -11 -58 23 -36 43 -27 69
31 32 72 56 96 98 96 44 0 74 -23 88 -68 13 -46 -1 -109 -34 -148 -22 -25 -23
-25 -40 -6 -17 19 -17 21 2 53 25 40 27 82 5 99 -20 17 -34 3 -71 -70 -32 -64
-61 -82 -107 -69 -51 14 -69 45 -64 109 5 69 32 114 58 100 11 -6 21 -14 24
-19z m5334 -322 l3 -76 -153 -5 c-84 -3 -154 -5 -155 -4 -1 1 -3 35 -4 76 l-2
75 129 6 c199 8 179 17 182 -72z m-5118 -112 l0 -114 -107 -6 c-58 -4 -128 -7
-155 -7 l-48 0 0 99 c0 55 -3 106 -6 115 -5 12 1 16 23 16 l30 0 6 -81 c4 -45
8 -83 9 -84 2 -2 17 0 35 2 l32 5 -2 72 c-2 71 -2 71 26 74 l27 3 0 -75 0 -76
35 0 35 0 0 85 0 85 30 0 30 0 0 -113z m4969 -67 c128 -68 141 -78 141 -102 0
-15 -4 -29 -10 -33 -27 -17 -316 -102 -318 -94 -10 27 10 59 41 67 35 9 44 30
46 108 1 37 -2 43 -29 54 -25 10 -30 18 -30 47 0 19 4 33 9 31 5 -1 73 -37
150 -78z m-5059 -271 l12 -70 42 7 c75 13 81 12 81 -21 l0 -29 -148 -26 -148
-26 -4 20 c-11 49 -35 189 -35 202 0 9 11 14 28 14 28 0 29 -2 41 -80 12 -71
16 -80 35 -80 48 1 55 30 29 137 -4 17 0 22 19 25 12 2 26 3 30 1 3 -2 12 -35
18 -74z m5159 -75 c5 -5 -46 -234 -53 -241 -10 -10 -57 11 -52 23 3 7 8 28 11
46 l6 34 -120 28 c-124 28 -136 36 -112 75 7 11 28 9 122 -13 63 -14 117 -26
121 -26 4 0 10 17 14 38 4 20 9 41 11 45 4 7 42 0 52 -9z m-5026 -198 c132
-56 139 -241 11 -298 -66 -29 -126 -18 -175 31 -85 85 -68 215 35 262 49 22
86 24 129 5z m4779 -122 c73 -26 137 -50 141 -54 11 -10 -35 -140 -49 -140
-12 0 -260 86 -275 95 -4 3 1 31 12 63 27 80 28 82 33 82 3 0 65 -21 138 -46z
m-52 -196 c77 -53 100 -139 58 -213 -64 -109 -215 -116 -278 -13 -44 73 -11
195 62 231 49 24 118 22 158 -5z m-4533 -128 c-31 -54 -33 -69 -13 -95 13 -18
14 -18 48 3 20 12 40 22 45 22 13 0 37 -54 26 -57 -4 -2 -64 -34 -133 -72
-143 -80 -128 -83 -187 36 -43 87 -39 123 17 161 34 23 53 24 107 7 19 -6 26
0 50 49 l27 56 20 -31 20 -32 -27 -47z m4311 -277 c61 -46 112 -86 112 -90 0
-3 -7 -15 -17 -25 -14 -15 -32 -18 -135 -18 -65 0 -118 -4 -118 -8 0 -4 31
-30 70 -57 38 -28 70 -54 70 -60 -1 -5 -7 -18 -15 -29 -16 -21 -8 -26 -153 81
l-112 83 16 25 c15 23 21 25 142 27 l127 3 -75 54 c-41 30 -77 55 -79 57 -2 2
4 15 13 29 20 30 8 35 154 -72z m-4150 -78 l44 -46 35 27 35 27 20 -21 c11
-11 18 -25 14 -30 -8 -13 -230 -182 -238 -182 -14 0 -98 126 -104 155 -8 43
16 87 58 109 48 24 86 13 136 -39z m3594 -519 l140 -84 -27 -18 c-26 -17 -28
-17 -60 0 l-33 18 -56 -38 c-44 -31 -54 -43 -50 -59 3 -11 8 -28 10 -37 3 -11
-5 -23 -21 -34 -14 -9 -27 -15 -29 -13 -2 2 -19 75 -38 161 -31 142 -33 159
-19 173 8 8 21 15 29 15 8 0 77 -38 154 -84z m-2962 42 c61 -31 90 -77 90
-142 0 -97 -74 -163 -172 -154 -161 16 -206 227 -63 298 52 26 90 25 145 -2z
m2613 -135 c3 -5 1 -18 -4 -30 -6 -17 -16 -23 -39 -23 -64 0 -99 -35 -100 -98
0 -84 89 -132 153 -82 14 11 28 29 32 39 5 15 11 18 33 12 33 -10 31 -34 -6
-75 -55 -59 -144 -73 -202 -33 -57 38 -75 71 -75 137 0 69 20 103 81 137 38
22 118 32 127 16z m-2269 -60 c55 -26 102 -48 104 -49 2 -1 -2 -14 -10 -27
l-13 -26 -74 35 c-40 19 -75 34 -77 34 -2 0 -10 -13 -19 -30 l-15 -30 62 -31
c77 -38 71 -33 63 -58 -8 -27 -25 -26 -85 4 -27 14 -53 25 -58 25 -5 0 -19
-23 -32 -50 -20 -42 -27 -49 -44 -44 -12 3 -25 10 -30 14 -7 7 112 279 123
280 2 0 49 -21 105 -47z m1955 -211 c28 -76 51 -140 51 -143 0 -7 -139 -54
-143 -49 -7 7 -108 283 -105 285 14 8 117 44 129 44 13 1 30 -35 68 -137z
m-218 32 c31 -33 33 -101 4 -134 l-20 -22 48 -44 c27 -24 47 -44 45 -44 -2 0
-18 -4 -35 -9 -29 -8 -36 -6 -77 30 -70 62 -109 49 -88 -31 9 -38 9 -39 -20
-45 -16 -4 -31 -5 -32 -3 -2 1 -17 62 -35 133 -17 72 -34 137 -37 147 -4 13 8
19 58 31 35 8 86 15 114 16 42 1 54 -3 75 -25z m-1219 4 c11 -9 26 -64 46
-171 29 -158 29 -159 8 -153 -12 3 -26 6 -33 6 -6 0 -14 17 -18 38 -6 37 -9
39 -56 50 -72 17 -86 15 -105 -14 -13 -19 -24 -24 -48 -22 -17 2 -30 7 -29 11
4 24 189 267 203 267 9 0 23 -6 32 -12z m871 -50 c3 -12 4 -25 2 -28 -3 -4
-41 -11 -85 -14 l-81 -7 3 -32 3 -32 75 0 c69 0 75 -2 78 -21 4 -25 -19 -34
-90 -34 -54 0 -60 -6 -52 -49 5 -25 11 -30 28 -26 11 2 49 7 84 10 l62 6 0
-29 0 -29 -112 -11 c-62 -6 -114 -10 -115 -9 -3 3 -33 300 -30 303 2 2 162 20
203 23 14 1 24 -6 27 -21z m-555 -39 c53 -99 51 -99 101 -25 41 61 45 65 75
59 17 -3 33 -7 34 -9 2 -1 1 -68 -3 -148 l-8 -146 -32 0 -32 0 4 98 4 97 -23
-26 c-13 -14 -35 -40 -49 -59 l-25 -34 -40 65 -39 64 -7 -50 c-3 -27 -7 -71
-7 -97 -1 -46 -2 -48 -31 -48 -29 0 -30 2 -30 43 0 23 3 93 7 155 l6 112 34 0
c30 0 36 -5 61 -51z"/>
<path d="M2629 5841 c-62 -62 -20 -171 66 -171 27 0 44 8 66 29 62 62 20 171
-66 171 -27 0 -44 -8 -66 -29z"/>
<path d="M4125 5724 c-20 -48 -20 -48 18 -62 54 -19 86 -15 99 13 13 30 -1 52
-49 72 -46 19 -51 17 -68 -23z"/>
<path d="M2975 5356 c-268 -39 -472 -103 -695 -217 -664 -338 -1098 -990
-1150 -1725 -28 -392 52 -773 235 -1121 327 -621 939 -1037 1645 -1118 1046
-119 2031 562 2290 1585 46 183 54 256 54 505 0 186 -4 261 -17 335 -86 463
-273 825 -592 1146 -313 315 -697 516 -1141 595 -150 27 -490 35 -629 15z
m575 -1579 c47 -13 111 -36 143 -51 l57 -27 0 -135 0 -134 -84 0 -84 0 -17 51
c-37 111 -133 165 -279 157 -104 -6 -160 -31 -235 -105 -90 -90 -124 -207
-101 -348 30 -189 134 -290 318 -311 33 -3 77 -3 96 0 l36 7 0 103 c0 67 -4
108 -13 120 -7 9 -46 27 -87 40 l-75 23 -3 66 -3 67 336 0 336 0 -3 -67 -3
-67 -74 -23 c-41 -12 -79 -27 -85 -33 -7 -6 -13 -73 -16 -162 l-5 -152 -60
-18 c-120 -36 -242 -50 -390 -45 -238 9 -398 65 -522 181 -106 99 -153 204
-153 345 0 274 176 461 500 532 123 27 351 21 470 -14z m-1336 -2 c208 -44
316 -148 316 -306 0 -36 -7 -86 -16 -112 -23 -67 -93 -141 -167 -176 -82 -39
-150 -50 -339 -58 l-158 -6 0 -87 c0 -58 4 -91 13 -98 7 -6 47 -21 90 -33 l77
-23 0 -63 0 -63 -337 2 -338 3 0 60 0 60 75 25 c42 14 81 29 88 33 17 12 17
662 0 674 -7 4 -46 20 -88 34 l-75 26 -3 53 c-5 91 -41 84 396 77 305 -4 404
-9 466 -22z m2620 -406 c116 -229 217 -423 224 -432 7 -8 47 -28 88 -43 l74
-27 0 -58 0 -59 -335 0 -335 0 0 60 c0 40 4 62 13 65 6 2 38 11 70 20 64 18
69 29 37 83 l-20 32 -210 0 -210 0 -20 -32 c-32 -53 -24 -69 45 -87 l60 -16 3
-63 3 -62 -261 0 -261 0 3 61 3 61 65 20 c36 11 75 29 87 41 12 12 126 210
253 440 l232 418 91 -3 90 -3 211 -416z"/>
<path d="M1850 3466 l0 -194 35 -4 c57 -7 184 10 230 31 64 28 98 80 103 155
2 49 -2 68 -20 100 -39 68 -144 106 -290 106 l-58 0 0 -194z"/>
<path d="M4405 3349 c-21 -41 -57 -111 -82 -156 l-45 -83 161 0 160 0 -70 148
c-39 81 -74 151 -79 156 -5 5 -25 -24 -45 -65z"/>
<path d="M1434 5166 c11 -44 25 -76 34 -76 5 0 19 11 32 25 27 29 23 37 -34
60 l-38 16 6 -25z"/>
<path d="M5077 5062 l-38 -17 30 -29 c17 -16 33 -28 35 -25 9 10 36 69 36 79
0 14 -18 12 -63 -8z"/>
<path d="M889 4521 c-62 -62 -19 -161 71 -161 33 0 48 6 71 29 41 42 40 92 -2
132 -43 41 -99 40 -140 0z"/>
<path d="M5614 4151 c-99 -60 -27 -207 83 -170 35 11 73 58 73 91 0 31 -23 69
-51 84 -38 19 -68 18 -105 -5z"/>
<path d="M5757 3083 c-4 -3 -7 -22 -7 -41 0 -31 2 -34 25 -28 36 9 75 25 75
31 0 4 -74 45 -83 45 -2 0 -7 -3 -10 -7z"/>
<path d="M756 2519 c-38 -30 -49 -64 -36 -105 15 -43 45 -64 91 -64 46 0 95
38 104 80 7 33 -15 84 -44 100 -32 17 -86 12 -115 -11z"/>
<path d="M5474 2230 c-56 -22 -73 -112 -30 -155 59 -59 153 -36 172 41 10 39
-6 75 -45 101 -36 24 -62 28 -97 13z"/>
<path d="M913 2099 c-16 -6 -23 -17 -23 -33 0 -31 30 -96 44 -96 14 0 76 38
76 46 0 14 -43 75 -58 83 -10 5 -27 5 -39 0z"/>
<path d="M1106 1759 c-8 -12 -11 -29 -8 -38 12 -29 37 -61 46 -61 15 0 76 44
76 54 0 19 -54 66 -76 66 -13 0 -30 -10 -38 -21z"/>
<path d="M4702 1233 c6 -27 12 -50 14 -52 3 -3 74 38 74 44 0 4 -87 55 -93 55
-3 0 0 -21 5 -47z"/>
<path d="M1728 1251 c-28 -25 -33 -36 -33 -76 0 -39 5 -51 28 -71 77 -66 196
22 157 117 -14 33 -55 59 -94 59 -14 0 -40 -13 -58 -29z"/>
<path d="M3787 903 c-16 -4 -18 -11 -12 -41 4 -20 9 -40 11 -44 8 -12 41 -9
80 7 31 13 35 18 32 47 -3 32 -5 33 -48 35 -25 0 -53 -1 -63 -4z"/>
<path d="M2653 835 c-30 -45 -29 -51 8 -59 47 -9 50 -8 44 19 -3 14 -7 36 -10
50 -7 33 -16 31 -42 -10z"/>
</g>
</svg>
